<svg xmlns="http://www.w3.org/2000/svg" width="797" height="487" viewBox="0 0 796.654 486.825"><path fill="#fff" d="M272.66 84.45s35.333-105.9 91.333-80.522S590.66 313.346 590.66 313.346 385.993 113.826 361.993 94.664c-24-19.162-56.666-22.022-89.333-10.214z"/><path fill="#C61829" d="M485.245 157.528s-66-96.195-98-128.578c-22.11-22.374-49.5-42.02-86 8.253 0 0 27.25-30.7 50-22.246 36 13.993 55.5 43.312 134 142.57z"/><path fill="#fff" d="M333.327 109.665S273.994 75.737 232.66 159.18c-50.667 118.436-42.667 134.156-27.333 138.955 15.333 4.798 65.333-6.948 194-111.44 0 0-61.333 29.474-84 37.6s-59.333 5.405-21.333-51.922 39.333-62.708 39.333-62.708z"/><path fill="#C61829" d="M323.993 113.325S264.66 82.73 224.66 191.46c0 0 38.88-94.497 95.547-71.81l3.786-6.325zM273.993 201.737s-20.667 65.39 82 9.803c0 0-34.667 32.544-68 31.042s-14-40.845-14-40.845z"/><path fill="#fff" d="M58.513 447.48l-3.223-6.614c-1.866 2.205-10.515 7.97-19.843 7.97-16.79 0-29.002-6.614-29.002-25.1 0-16.112 12.72-25.44 28.323-25.78l18.826-.34c-.17-13.398-2.714-17.47-13.4-17.47-7.46 0-15.602.85-22.726 2.546l-.51-.51-1.355-12.89c8.48-2.374 17.3-3.562 28.493-3.562 18.487 0 26.797 9.158 26.797 26.12v33.58c0 7.294.848 17.3 1.187 22.048H58.513zm-4.92-35.446l-15.772.168c-8.988.17-14.246 4.41-14.246 11.363 0 6.955 5.427 11.195 13.06 11.195 8.31 0 17.298-4.92 17.13-13.908l-.17-8.818zM90.072 447.48l-.51-.51V330.964h16.622l.678.678v115.84h-16.79zM125.584 447.48l-.51-.51V330.964h16.622l.678.678v115.84h-16.79zM216.267 447.48l-2.883-5.937c-6.275 3.393-13.06 7.293-22.218 7.293-20.69 0-33.242-8.31-33.242-42.06 0-25.442 8.65-41.046 34.43-41.046 10.514 0 17.807 2.545 19.164 2.885v-37.652h16.62l.51.508v116.01h-12.38zm-4.748-62.923c-1.527-1.018-7.463-4.41-18.827-4.41-14.417 0-17.3 11.363-17.3 26.63 0 15.77 3.393 27.644 15.435 27.644 10.346 0 18.995-5.257 20.69-6.104v-43.76zM294.247 447.48l-3.223-6.614c-1.865 2.205-10.515 7.97-19.843 7.97-16.79 0-29-6.614-29-25.1 0-16.112 12.72-25.44 28.322-25.78l18.826-.34c-.17-13.398-2.713-17.47-13.398-17.47-7.462 0-15.603.85-22.727 2.546l-.51-.51-1.355-12.89c8.48-2.374 17.3-3.562 28.493-3.562 18.488 0 26.798 9.158 26.798 26.12v33.58c0 7.294.848 17.3 1.188 22.048h-13.57zm-4.92-35.446l-15.77.168c-8.99.17-14.248 4.41-14.248 11.363 0 6.955 5.426 11.195 13.058 11.195 8.31 0 17.3-4.92 17.13-13.908l-.17-8.818zM358.795 441.034c-6.614 19.166-12.042 30.02-26.797 39.348l-9.668 6.107-7.462-12.384.17-.508 10.515-6.783c10.007-6.445 13.23-16.79 16.112-26.29l-25.78-72.59.34-.677h15.604l18.146 54.44h.34l17.638-54.44h15.773l.34.678-25.272 73.098z"/><path fill="#fff" d="M486.74 447.48v-48.677c0-13.06-2.036-18.824-12.89-18.824-6.615 0-11.025 4.07-15.096 8.817v58.682h-17.3v-48.677c0-13.568-3.222-18.824-12.89-18.824-7.462 0-15.094 8.14-15.942 8.817v58.682h-17.3V386.76c0-4.748 0-7.463-.678-19.504h14.077l2.715 6.953c4.918-5.087 9.836-8.48 20.52-8.48 10.007 0 16.79 3.733 20.692 10.01 4.58-5.77 12.55-10.01 24.592-10.01 23.404 0 26.796 14.08 26.796 35.278v46.47H486.74zM588.377 411.694l-.68.508h-51.22c.85 14.078 6.107 22.39 21.88 22.39 8.48 0 16.62-1.19 24.762-3.903l.678.51v13.567c-8.99 2.883-16.79 4.07-26.288 4.07-30.36 0-38.5-17.81-38.5-40.875 0-26.287 13.06-42.23 36.974-42.23 20.352 0 33.24 11.533 33.24 30.02 0 3.56-.847 15.942-.847 15.942zm-16.96-20.014c-.51-10.006-11.024-11.7-15.942-11.7-11.872 0-17.98 6.442-18.826 17.976h35.106c0-2.036-.34-6.276-.34-6.276zM659.608 447.48l-2.884-5.937c-6.275 3.393-13.06 7.293-22.218 7.293-20.69 0-33.24-8.31-33.24-42.06 0-25.442 8.648-41.046 34.428-41.046 10.516 0 17.81 2.545 19.165 2.885v-37.652h16.62l.51.508v116.01h-12.382zm-4.75-62.923c-1.525-1.018-7.462-4.41-18.825-4.41-14.416 0-17.3 11.363-17.3 26.63 0 15.77 3.393 27.644 15.435 27.644 10.346 0 18.995-5.257 20.69-6.104v-43.76zM699.36 352.333c-6.106 0-11.024-4.748-11.024-10.684 0-5.94 4.918-10.687 11.023-10.687 5.936 0 10.853 4.748 10.853 10.686 0 5.934-4.917 10.683-10.854 10.683zm-8.31 95.146l-.51-.68V367.26h16.79l.34.34v79.88h-16.62zM772.743 447.48l-3.223-6.614c-1.865 2.205-10.516 7.97-19.844 7.97-16.79 0-29-6.614-29-25.1 0-16.112 12.72-25.44 28.322-25.78l18.825-.34c-.17-13.398-2.713-17.47-13.398-17.47-7.462 0-15.604.85-22.727 2.546l-.51-.51-1.355-12.89c8.48-2.374 17.3-3.562 28.493-3.562 18.486 0 26.797 9.158 26.797 26.12v33.58c0 7.294.848 17.3 1.188 22.048h-13.567zm-4.92-35.446l-15.77.168c-8.99.17-14.248 4.41-14.248 11.363 0 6.955 5.428 11.195 13.06 11.195 8.31 0 17.3-4.92 17.13-13.908l-.17-8.818z"/></svg>